<svg width="74" height="26" viewBox="0 0 74 26" fill="none" xmlns="http://www.w3.org/2000/svg">
<path d="M60.9801 22.7672C58.7308 22.7672 56.6591 22.0001 55.0032 20.7131C56.679 18.5384 57.6801 15.8048 57.6801 12.8328C57.6801 9.86142 56.679 7.12785 55.0032 4.95314C56.6591 3.66573 58.7307 2.89862 60.9801 2.89862C66.4035 2.89862 70.8009 7.34691 70.8009 12.8328C70.8009 18.3198 66.4035 22.767 60.9801 22.767V22.7672ZM39.0163 20.7133C40.6925 18.5385 41.6936 15.805 41.6936 12.8329C41.6936 9.86156 40.6925 7.12799 39.0163 4.95259C40.6722 3.66559 42.7441 2.89848 44.9936 2.89848C47.2438 2.89848 49.3146 3.66546 50.9704 4.953C49.2943 7.12826 48.2936 9.86129 48.2936 12.8326C48.2936 15.8043 49.2941 18.538 50.9704 20.7128C49.3146 21.9998 47.2434 22.767 44.9936 22.767C42.7443 22.767 40.6719 21.9998 39.0163 20.7128V20.7133ZM23.0298 20.7133C24.7056 18.5385 25.7067 15.805 25.7067 12.8329C25.7067 9.86156 24.7056 7.12799 23.0298 4.95327C24.6857 3.66587 26.7568 2.89875 29.0067 2.89875C31.2565 2.89875 33.3276 3.66573 34.9839 4.95327C33.3082 7.12812 32.3067 9.86156 32.3067 12.8329C32.3067 15.8047 33.3082 18.5383 34.9839 20.7133C33.3276 22.0002 31.2564 22.7674 29.0067 22.7674C26.757 22.7674 24.6857 22.0002 23.0298 20.7133ZM3.19908 12.8332C3.19908 7.34691 7.59616 2.89903 13.0199 2.89903C15.2697 2.89903 17.3415 3.666 18.9972 4.95355C17.321 7.1284 16.3199 9.86183 16.3199 12.8332C16.3199 15.805 17.321 18.5385 18.9967 20.7135C17.3415 22.0005 15.2697 22.7676 13.0199 22.7676C7.59575 22.7676 3.19908 18.3202 3.19908 12.8335V12.8332ZM21.0131 18.6013C19.8643 16.9745 19.1863 14.9851 19.1863 12.8332C19.1863 10.6823 19.865 8.69188 21.0131 7.06509C22.1628 8.69188 22.8411 10.6821 22.8411 12.8332C22.8411 14.9851 22.1628 16.9745 21.0131 18.6013ZM36.9995 18.6013C35.8507 16.9745 35.173 14.9851 35.173 12.8332C35.173 10.6823 35.8508 8.69243 36.9995 7.06591C38.1488 8.69216 38.8269 10.6821 38.8269 12.8332C38.8269 14.9851 38.1486 16.9745 36.9995 18.6013ZM52.9866 18.6013C51.8377 16.9745 51.1591 14.9851 51.1591 12.8332C51.1591 10.6823 51.8378 8.69243 52.9866 7.06591C54.1354 8.69216 54.8134 10.6821 54.8134 12.8332C54.8134 14.9851 54.1351 16.9745 52.9866 18.6013ZM60.9801 0C57.9497 0 55.1689 1.07601 52.987 2.86935C50.8046 1.07601 48.0238 0 44.9934 0C41.9638 0 39.1823 1.07601 36.9995 2.86881C34.8178 1.07587 32.0367 0 29.0064 0C25.9761 0 23.1949 1.07601 21.0129 2.86881C18.8316 1.07587 16.0501 0 13.0198 0C6.01313 0 0.333252 5.74568 0.333252 12.8332C0.333252 19.9215 6.01313 25.6667 13.0198 25.6667C16.0501 25.6667 18.8313 24.5908 21.0129 22.7968C23.1946 24.5907 25.9761 25.6667 29.0064 25.6667C32.0367 25.6667 34.8175 24.5908 36.9995 22.7968C39.1822 24.5907 41.9636 25.6667 44.9934 25.6667C48.0238 25.6667 50.8046 24.5908 52.987 22.7968C55.1687 24.5907 57.9497 25.6667 60.9801 25.6667C67.9872 25.6667 73.6666 19.9214 73.6666 12.8332C73.6666 5.74596 67.9872 0 60.9801 0Z" fill="black"/>
</svg>
