<svg width="12" height="12" viewBox="0 0 14 14" fill="none" xmlns="http://www.w3.org/2000/svg">
<path d="M8.52759 6.99995L13.3496 2.17798C13.7718 1.75616 13.7718 1.072 13.3496 0.650185C12.9273 0.227933 12.2436 0.227933 11.8218 0.650185L6.99979 5.47172L2.17783 0.650185C1.75558 0.227933 1.07185 0.227933 0.650032 0.650185C0.227781 1.072 0.227781 1.75616 0.650032 2.17798L5.472 6.99995L0.650032 11.8219C0.227781 12.2437 0.227781 12.9279 0.650032 13.3497C0.860942 13.5606 1.13754 13.6661 1.41415 13.6661C1.69075 13.6661 1.96692 13.5606 2.17826 13.3497L6.99979 8.52775L11.8218 13.3497C12.0327 13.5606 12.3093 13.6661 12.5859 13.6661C12.8625 13.6661 13.1386 13.5606 13.35 13.3497C13.7722 12.9279 13.7722 12.2437 13.35 11.8219L8.52759 6.99995Z" fill="#333333"/>
</svg>
