<svg width="320" height="12" viewBox="0 0 320 12" fill="none" xmlns="http://www.w3.org/2000/svg">
<path d="M10.276 5.324C10.276 2.65 8.12 0.494 5.446 0.494C2.786 0.494 0.616 2.65 0.616 5.324C0.616 7.984 2.786 10.154 5.446 10.154C8.12 10.154 10.276 7.984 10.276 5.324ZM9.842 5.324C9.842 7.732 7.868 9.72 5.446 9.72C3.038 9.72 1.05 7.732 1.05 5.324C1.05 2.902 3.038 0.928 5.446 0.928C7.868 0.928 9.842 2.902 9.842 5.324ZM7.168 7.032C6.804 7.522 6.146 7.844 5.474 7.844C4.214 7.844 3.08 6.78 3.08 5.31C3.08 3.798 4.214 2.79 5.474 2.79C6.132 2.79 6.804 3.098 7.168 3.588L7.518 3.238C7.028 2.664 6.342 2.328 5.474 2.328C3.864 2.328 2.562 3.588 2.562 5.296C2.562 7.004 3.864 8.306 5.474 8.306C6.342 8.306 7.028 7.97 7.532 7.382L7.168 7.032ZM21.6875 10V8.964H17.1095C19.7135 6.906 21.6455 5.17 21.6455 3.266C21.6455 1.404 20.0635 0.521999 18.5095 0.521999C17.1935 0.521999 15.9755 1.04 15.2615 1.992L15.9755 2.734C16.5215 2.034 17.3895 1.558 18.5095 1.558C19.4755 1.558 20.4695 2.062 20.4695 3.266C20.4695 4.876 18.6355 6.43 15.2755 9.062V10H21.6875ZM27.034 10.168C29.582 10.168 30.604 7.606 30.604 5.338C30.604 3.056 29.582 0.521999 27.034 0.521999C24.472 0.521999 23.464 3.056 23.464 5.338C23.464 7.606 24.472 10.168 27.034 10.168ZM27.034 9.132C25.256 9.132 24.654 7.2 24.654 5.338C24.654 3.476 25.256 1.558 27.034 1.558C28.812 1.558 29.414 3.476 29.414 5.338C29.414 7.2 28.812 9.132 27.034 9.132ZM38.4903 10V8.964H33.9123C36.5163 6.906 38.4483 5.17 38.4483 3.266C38.4483 1.404 36.8663 0.521999 35.3123 0.521999C33.9963 0.521999 32.7783 1.04 32.0643 1.992L32.7783 2.734C33.3243 2.034 34.1923 1.558 35.3123 1.558C36.2783 1.558 37.2723 2.062 37.2723 3.266C37.2723 4.876 35.4383 6.43 32.0783 9.062V10H38.4903ZM46.7207 10V8.964H42.1427C44.7467 6.906 46.6787 5.17 46.6787 3.266C46.6787 1.404 45.0967 0.521999 43.5427 0.521999C42.2267 0.521999 41.0087 1.04 40.2947 1.992L41.0087 2.734C41.5547 2.034 42.4227 1.558 43.5427 1.558C44.5087 1.558 45.5027 2.062 45.5027 3.266C45.5027 4.876 43.6687 6.43 40.3087 9.062V10H46.7207ZM57.7343 10V5.352C57.7343 3.714 56.5583 3.07 55.1163 3.07C54.0103 3.07 53.1423 3.434 52.4143 4.19L52.9043 4.918C53.5063 4.26 54.1643 3.98 54.9763 3.98C55.9563 3.98 56.6843 4.498 56.6843 5.394V6.612C56.1383 5.996 55.3683 5.702 54.4443 5.702C53.2963 5.702 52.0923 6.402 52.0923 7.928C52.0923 9.398 53.3103 10.168 54.4443 10.168C55.3543 10.168 56.1383 9.846 56.6843 9.23V10H57.7343ZM54.8363 9.412C53.8423 9.412 53.1562 8.796 53.1562 7.928C53.1562 7.074 53.8423 6.458 54.8363 6.458C55.5643 6.458 56.2783 6.738 56.6843 7.284V8.572C56.2783 9.132 55.5643 9.412 54.8363 9.412ZM65.4667 10V3.238H64.4167V8.208C64.0247 8.754 63.2407 9.23 62.4287 9.23C61.5047 9.23 60.9027 8.88 60.9027 7.69V3.238H59.8527V8.012C59.8527 9.468 60.5947 10.168 62.0087 10.168C63.0167 10.168 63.8987 9.636 64.4167 9.048V10H65.4667ZM69.2857 10.168C69.8877 10.168 70.2657 9.986 70.5317 9.734L70.2237 8.936C70.0837 9.09 69.8177 9.23 69.5097 9.23C69.0617 9.23 68.8377 8.866 68.8377 8.362V4.162H70.2097V3.238H68.8377V1.39H67.7737V3.238H66.6537V4.162H67.7737V8.586C67.7737 9.594 68.2777 10.168 69.2857 10.168ZM74.6329 10.168C76.6909 10.168 77.9789 8.572 77.9789 6.612C77.9789 4.652 76.6909 3.07 74.6329 3.07C72.5749 3.07 71.2869 4.652 71.2869 6.612C71.2869 8.572 72.5749 10.168 74.6329 10.168ZM74.6329 9.23C73.1909 9.23 72.3929 7.998 72.3929 6.612C72.3929 5.24 73.1909 4.008 74.6329 4.008C76.0749 4.008 76.8729 5.24 76.8729 6.612C76.8729 7.998 76.0749 9.23 74.6329 9.23ZM88.9026 10V5.114C88.9026 3.756 88.2446 3.07 87.0126 3.07C86.0326 3.07 85.1226 3.714 84.7446 4.33C84.5486 3.63 83.9606 3.07 82.9386 3.07C81.9306 3.07 81.0346 3.784 80.7406 4.218V3.238H79.6906V10H80.7406V5.058C81.1046 4.512 81.8326 4.008 82.5186 4.008C83.4146 4.008 83.7646 4.554 83.7646 5.408V10H84.8146V5.044C85.1646 4.498 85.9066 4.008 86.6066 4.008C87.4886 4.008 87.8526 4.554 87.8526 5.408V10H88.9026ZM93.9513 10.168C96.0093 10.168 97.2973 8.572 97.2973 6.612C97.2973 4.652 96.0093 3.07 93.9513 3.07C91.8933 3.07 90.6053 4.652 90.6053 6.612C90.6053 8.572 91.8933 10.168 93.9513 10.168ZM93.9513 9.23C92.5093 9.23 91.7113 7.998 91.7113 6.612C91.7113 5.24 92.5093 4.008 93.9513 4.008C95.3933 4.008 96.1913 5.24 96.1913 6.612C96.1913 7.998 95.3933 9.23 93.9513 9.23ZM100.731 10.168C101.333 10.168 101.711 9.986 101.977 9.734L101.669 8.936C101.529 9.09 101.263 9.23 100.955 9.23C100.507 9.23 100.283 8.866 100.283 8.362V4.162H101.655V3.238H100.283V1.39H99.219V3.238H98.099V4.162H99.219V8.586C99.219 9.594 99.723 10.168 100.731 10.168ZM103.656 2.272C104.048 2.272 104.356 1.964 104.356 1.572C104.356 1.18 104.048 0.857999 103.656 0.857999C103.264 0.857999 102.942 1.18 102.942 1.572C102.942 1.964 103.264 2.272 103.656 2.272ZM104.174 10V3.238H103.124V10H104.174ZM109.223 10L112.037 3.238H110.903L108.649 8.782L106.409 3.238H105.261L108.075 10H109.223ZM116.198 10.168C117.29 10.168 118.2 9.79 118.886 9.118L118.382 8.432C117.836 8.992 117.066 9.3 116.282 9.3C114.826 9.3 113.944 8.236 113.86 6.962H119.32V6.696C119.32 4.666 118.116 3.07 116.072 3.07C114.14 3.07 112.74 4.652 112.74 6.612C112.74 8.726 114.182 10.168 116.198 10.168ZM118.284 6.178H113.846C113.902 5.156 114.616 3.938 116.058 3.938C117.598 3.938 118.27 5.184 118.284 6.178ZM130.205 10V0.661999H128.539L125.641 7.858L122.729 0.661999H121.063V10H122.225V2.146L125.403 10H125.879L129.043 2.146V10H130.205ZM137.619 10V5.352C137.619 3.714 136.443 3.07 135.001 3.07C133.895 3.07 133.027 3.434 132.299 4.19L132.789 4.918C133.391 4.26 134.049 3.98 134.861 3.98C135.841 3.98 136.569 4.498 136.569 5.394V6.612C136.023 5.996 135.253 5.702 134.329 5.702C133.181 5.702 131.977 6.402 131.977 7.928C131.977 9.398 133.195 10.168 134.329 10.168C135.239 10.168 136.023 9.846 136.569 9.23V10H137.619ZM134.721 9.412C133.727 9.412 133.041 8.796 133.041 7.928C133.041 7.074 133.727 6.458 134.721 6.458C135.449 6.458 136.163 6.738 136.569 7.284V8.572C136.163 9.132 135.449 9.412 134.721 9.412ZM141.894 10.168C143.63 10.168 144.54 9.258 144.54 8.124C144.54 5.492 140.354 6.458 140.354 4.988C140.354 4.386 140.928 3.924 141.852 3.924C142.734 3.924 143.462 4.288 143.868 4.778L144.358 4.05C143.826 3.504 143.014 3.07 141.852 3.07C140.242 3.07 139.346 3.952 139.346 5.016C139.346 7.522 143.532 6.514 143.532 8.152C143.532 8.824 142.958 9.314 141.922 9.314C140.998 9.314 140.144 8.866 139.696 8.348L139.164 9.104C139.85 9.818 140.774 10.168 141.894 10.168ZM147.967 10.168C148.569 10.168 148.947 9.986 149.213 9.734L148.905 8.936C148.765 9.09 148.499 9.23 148.191 9.23C147.743 9.23 147.519 8.866 147.519 8.362V4.162H148.891V3.238H147.519V1.39H146.455V3.238H145.335V4.162H146.455V8.586C146.455 9.594 146.959 10.168 147.967 10.168ZM153.427 10.168C154.519 10.168 155.429 9.79 156.115 9.118L155.611 8.432C155.065 8.992 154.295 9.3 153.511 9.3C152.055 9.3 151.173 8.236 151.089 6.962H156.549V6.696C156.549 4.666 155.345 3.07 153.301 3.07C151.369 3.07 149.969 4.652 149.969 6.612C149.969 8.726 151.411 10.168 153.427 10.168ZM155.513 6.178H151.075C151.131 5.156 151.845 3.938 153.287 3.938C154.827 3.938 155.499 5.184 155.513 6.178ZM159.299 10V5.212C159.607 4.666 160.489 4.134 161.147 4.134C161.301 4.134 161.427 4.148 161.553 4.162V3.084C160.629 3.084 159.845 3.616 159.299 4.316V3.238H158.249V10H159.299ZM172.082 10V5.114C172.082 3.756 171.424 3.07 170.192 3.07C169.212 3.07 168.302 3.714 167.924 4.33C167.728 3.63 167.14 3.07 166.118 3.07C165.11 3.07 164.214 3.784 163.92 4.218V3.238H162.87V10H163.92V5.058C164.284 4.512 165.012 4.008 165.698 4.008C166.594 4.008 166.944 4.554 166.944 5.408V10H167.994V5.044C168.344 4.498 169.086 4.008 169.786 4.008C170.668 4.008 171.032 4.554 171.032 5.408V10H172.082ZM174.709 2.272C175.101 2.272 175.409 1.964 175.409 1.572C175.409 1.18 175.101 0.857999 174.709 0.857999C174.317 0.857999 173.995 1.18 173.995 1.572C173.995 1.964 174.317 2.272 174.709 2.272ZM175.227 10V3.238H174.177V10H175.227ZM182.935 10V5.254C182.935 3.784 182.193 3.07 180.793 3.07C179.771 3.07 178.847 3.644 178.371 4.218V3.238H177.321V10H178.371V5.058C178.777 4.512 179.547 4.008 180.373 4.008C181.283 4.008 181.899 4.372 181.899 5.576V10H182.935ZM190.996 10V0.661999H189.946V4.26C189.4 3.518 188.574 3.07 187.664 3.07C185.9 3.07 184.654 4.456 184.654 6.626C184.654 8.824 185.9 10.168 187.664 10.168C188.616 10.168 189.442 9.678 189.946 8.992V10H190.996ZM187.93 9.23C186.558 9.23 185.746 8.124 185.746 6.626C185.746 5.128 186.558 4.008 187.93 4.008C188.756 4.008 189.582 4.512 189.946 5.1V8.152C189.582 8.74 188.756 9.23 187.93 9.23ZM198.475 3.49C198.475 1.838 197.159 0.521999 195.507 0.521999C193.869 0.521999 192.539 1.838 192.539 3.49C192.539 5.128 193.869 6.458 195.507 6.458C197.159 6.458 198.475 5.128 198.475 3.49ZM198.069 3.49C198.069 4.89 196.921 6.052 195.507 6.052C194.093 6.052 192.945 4.89 192.945 3.49C192.945 2.048 194.093 0.928 195.507 0.928C196.921 0.928 198.069 2.048 198.069 3.49ZM196.879 5.198L195.969 3.84C196.165 3.84 196.837 3.588 196.837 2.832C196.837 2.202 196.333 1.796 195.759 1.796H194.373V5.198H194.821V3.854H195.437L196.319 5.198H196.879ZM196.375 2.832C196.375 3.182 196.053 3.448 195.759 3.448H194.821V2.188H195.759C196.053 2.188 196.375 2.454 196.375 2.832ZM200.577 10.14C200.997 10.14 201.347 9.79 201.347 9.37C201.347 8.95 200.997 8.6 200.577 8.6C200.157 8.6 199.807 8.95 199.807 9.37C199.807 9.79 200.157 10.14 200.577 10.14ZM214.916 10L211.164 0.661999H209.722L205.956 10H207.286L208.112 7.914H212.76L213.586 10H214.916ZM212.424 6.892H208.462L210.436 1.852L212.424 6.892ZM217.145 10V0.661999H216.095V10H217.145ZM220.289 10V0.661999H219.239V10H220.289ZM227.057 10V5.212C227.365 4.666 228.247 4.134 228.905 4.134C229.059 4.134 229.185 4.148 229.311 4.162V3.084C228.387 3.084 227.603 3.616 227.057 4.316V3.238H226.007V10H227.057ZM231.16 2.272C231.552 2.272 231.86 1.964 231.86 1.572C231.86 1.18 231.552 0.857999 231.16 0.857999C230.768 0.857999 230.446 1.18 230.446 1.572C230.446 1.964 230.768 2.272 231.16 2.272ZM231.678 10V3.238H230.628V10H231.678ZM236.489 12.744C238.141 12.744 239.723 12.044 239.723 9.902V3.238H238.673V4.26C238.127 3.518 237.301 3.07 236.391 3.07C234.613 3.07 233.381 4.414 233.381 6.584C233.381 8.768 234.627 10.084 236.391 10.084C237.343 10.084 238.169 9.566 238.673 8.88V9.902C238.673 11.33 237.609 11.876 236.489 11.876C235.523 11.876 234.851 11.624 234.291 10.966L233.759 11.722C234.571 12.52 235.355 12.744 236.489 12.744ZM236.657 9.146C235.285 9.146 234.473 8.068 234.473 6.584C234.473 5.086 235.285 4.008 236.657 4.008C237.483 4.008 238.295 4.512 238.673 5.086V8.054C238.295 8.642 237.483 9.146 236.657 9.146ZM247.453 10V5.226C247.453 3.756 246.711 3.07 245.297 3.07C244.275 3.07 243.351 3.644 242.889 4.218V0.661999H241.839V10H242.889V5.058C243.281 4.512 244.065 4.008 244.877 4.008C245.801 4.008 246.403 4.344 246.403 5.548V10H247.453ZM251.272 10.168C251.874 10.168 252.252 9.986 252.518 9.734L252.21 8.936C252.07 9.09 251.804 9.23 251.496 9.23C251.048 9.23 250.824 8.866 250.824 8.362V4.162H252.196V3.238H250.824V1.39H249.76V3.238H248.64V4.162H249.76V8.586C249.76 9.594 250.264 10.168 251.272 10.168ZM255.821 10.168C257.557 10.168 258.467 9.258 258.467 8.124C258.467 5.492 254.281 6.458 254.281 4.988C254.281 4.386 254.855 3.924 255.779 3.924C256.661 3.924 257.389 4.288 257.795 4.778L258.285 4.05C257.753 3.504 256.941 3.07 255.779 3.07C254.169 3.07 253.273 3.952 253.273 5.016C253.273 7.522 257.459 6.514 257.459 8.152C257.459 8.824 256.885 9.314 255.849 9.314C254.925 9.314 254.071 8.866 253.623 8.348L253.091 9.104C253.777 9.818 254.701 10.168 255.821 10.168ZM264.846 10V5.212C265.154 4.666 266.036 4.134 266.694 4.134C266.848 4.134 266.974 4.148 267.1 4.162V3.084C266.176 3.084 265.392 3.616 264.846 4.316V3.238H263.796V10H264.846ZM271.483 10.168C272.575 10.168 273.485 9.79 274.171 9.118L273.667 8.432C273.121 8.992 272.351 9.3 271.567 9.3C270.111 9.3 269.229 8.236 269.145 6.962H274.605V6.696C274.605 4.666 273.401 3.07 271.357 3.07C269.425 3.07 268.025 4.652 268.025 6.612C268.025 8.726 269.467 10.168 271.483 10.168ZM273.569 6.178H269.131C269.187 5.156 269.901 3.938 271.343 3.938C272.883 3.938 273.555 5.184 273.569 6.178ZM278.462 10.168C280.198 10.168 281.108 9.258 281.108 8.124C281.108 5.492 276.922 6.458 276.922 4.988C276.922 4.386 277.496 3.924 278.42 3.924C279.302 3.924 280.03 4.288 280.436 4.778L280.926 4.05C280.394 3.504 279.582 3.07 278.42 3.07C276.81 3.07 275.914 3.952 275.914 5.016C275.914 7.522 280.1 6.514 280.1 8.152C280.1 8.824 279.526 9.314 278.49 9.314C277.566 9.314 276.712 8.866 276.264 8.348L275.732 9.104C276.418 9.818 277.342 10.168 278.462 10.168ZM285.88 10.168C286.972 10.168 287.882 9.79 288.568 9.118L288.064 8.432C287.518 8.992 286.748 9.3 285.964 9.3C284.508 9.3 283.626 8.236 283.542 6.962H289.002V6.696C289.002 4.666 287.798 3.07 285.754 3.07C283.822 3.07 282.422 4.652 282.422 6.612C282.422 8.726 283.864 10.168 285.88 10.168ZM287.966 6.178H283.528C283.584 5.156 284.298 3.938 285.74 3.938C287.28 3.938 287.952 5.184 287.966 6.178ZM291.752 10V5.212C292.06 4.666 292.942 4.134 293.6 4.134C293.754 4.134 293.88 4.148 294.006 4.162V3.084C293.082 3.084 292.298 3.616 291.752 4.316V3.238H290.702V10H291.752ZM298.277 10L301.091 3.238H299.957L297.703 8.782L295.463 3.238H294.315L297.129 10H298.277ZM305.253 10.168C306.345 10.168 307.255 9.79 307.941 9.118L307.437 8.432C306.891 8.992 306.121 9.3 305.337 9.3C303.881 9.3 302.999 8.236 302.915 6.962H308.375V6.696C308.375 4.666 307.171 3.07 305.127 3.07C303.195 3.07 301.795 4.652 301.795 6.612C301.795 8.726 303.237 10.168 305.253 10.168ZM307.339 6.178H302.901C302.957 5.156 303.671 3.938 305.113 3.938C306.653 3.938 307.325 5.184 307.339 6.178ZM316.025 10V0.661999H314.975V4.26C314.429 3.518 313.603 3.07 312.693 3.07C310.929 3.07 309.683 4.456 309.683 6.626C309.683 8.824 310.929 10.168 312.693 10.168C313.645 10.168 314.471 9.678 314.975 8.992V10H316.025ZM312.959 9.23C311.587 9.23 310.775 8.124 310.775 6.626C310.775 5.128 311.587 4.008 312.959 4.008C313.785 4.008 314.611 4.512 314.975 5.1V8.152C314.611 8.74 313.785 9.23 312.959 9.23ZM318.688 10.14C319.108 10.14 319.458 9.79 319.458 9.37C319.458 8.95 319.108 8.6 318.688 8.6C318.268 8.6 317.918 8.95 317.918 9.37C317.918 9.79 318.268 10.14 318.688 10.14Z" fill="#333333"/>
</svg>