<svg width="20" height="20" viewBox="0 0 20 20" fill="none" xmlns="http://www.w3.org/2000/svg">
<path d="M11.7894 0.239405C11.2252 0.142914 10.6499 0.0909424 10.082 0.0909424C5.20848 0.0909424 1.0662 3.58331 0.238452 8.39305C-0.214392 11.0244 0.383229 13.6742 1.92356 15.8564C3.46389 18.0386 5.76148 19.4897 8.3931 19.9425C8.95731 20.039 9.53257 20.0909 10.1005 20.0909C14.974 20.0909 19.1162 16.5986 19.944 11.7888C20.883 6.35554 17.2233 1.1746 11.7893 0.239308L11.7894 0.239405ZM10.8837 16.2499C10.6276 16.48 10.3269 16.595 9.98911 16.595C9.64018 16.595 9.33581 16.48 9.07607 16.2573C8.81618 16.0309 8.68631 15.7154 8.68631 15.3072C8.68631 14.9472 8.81253 14.6429 9.06496 14.398C9.3174 14.153 9.62542 14.0269 9.99286 14.0269C10.3529 14.0269 10.6572 14.1494 10.9022 14.398C11.1471 14.6429 11.2697 14.9472 11.2697 15.3072C11.2697 15.7043 11.1398 16.0198 10.8836 16.2499H10.8837ZM14.0906 8.29661C13.8939 8.66401 13.6564 8.9795 13.3854 9.24671C13.1144 9.51392 12.6245 9.95926 11.9193 10.5902C11.7225 10.7683 11.5666 10.9242 11.4516 11.0578C11.3328 11.1914 11.2474 11.3139 11.188 11.4289C11.1323 11.5403 11.0878 11.6516 11.0544 11.7629C11.0247 11.8743 10.9764 12.0709 10.9134 12.353C10.8057 12.9468 10.4643 13.2475 9.89266 13.2475C9.59575 13.2475 9.34336 13.151 9.14291 12.9543C8.93875 12.7613 8.83859 12.4718 8.83859 12.0858C8.83859 11.6034 8.91278 11.1877 9.06126 10.8351C9.20974 10.4825 9.40645 10.1745 9.65513 9.90729C9.90011 9.64007 10.2341 9.32464 10.6536 8.95719C11.021 8.638 11.2846 8.39305 11.4479 8.22978C11.6111 8.06651 11.7485 7.88463 11.8599 7.68425C11.9713 7.48381 12.027 7.26487 12.027 7.03102C12.027 6.57458 11.8562 6.18487 11.5148 5.87309C11.1733 5.55765 10.7353 5.40174 10.1971 5.40174C9.56613 5.40174 9.10213 5.56131 8.80527 5.87679C8.50836 6.19597 8.25597 6.66352 8.04806 7.27968C7.8551 7.92545 7.48386 8.24829 6.93821 8.24829C6.61899 8.24829 6.34804 8.13694 6.12537 7.9106C5.9064 7.6842 5.79504 7.43925 5.79504 7.17574C5.79504 6.63021 5.96954 6.08088 6.31838 5.52049C6.66731 4.9638 7.17584 4.49991 7.8476 4.1325C8.51937 3.76509 9.29889 3.58327 10.1934 3.58327C11.0248 3.58327 11.756 3.73543 12.3907 4.04341C13.0254 4.3514 13.5153 4.76712 13.8642 5.29414C14.2093 5.82116 14.3838 6.3927 14.3838 7.01242C14.3875 7.50232 14.291 7.92911 14.0905 8.29651L14.0906 8.29661Z" fill="#0A72CB"/>
</svg>