<svg width="84" height="86" viewBox="0 0 84 86" fill="none" xmlns="http://www.w3.org/2000/svg">
<path d="M13.4418 37.6824C13.4357 32.9448 14.5256 28.27 16.6262 24.0235C18.7268 19.777 21.7812 16.074 25.5506 13.204C29.3199 10.334 33.7021 8.37476 38.3543 7.47954C43.0066 6.58433 47.8029 6.77739 52.3682 8.04361C56.9335 9.30984 61.144 11.6149 64.6705 14.7786C68.197 17.9423 70.9439 21.8788 72.6964 26.2804C74.4489 30.6819 75.1595 35.4292 74.7727 40.151C74.3858 44.8728 72.912 49.4412 70.4664 53.4988L70.5587 53.456C72.429 52.5572 74.4773 52.0898 76.5524 52.0885C77.0489 52.0921 77.5449 52.1207 78.0385 52.1742C80.1897 47.1473 81.1954 41.7048 80.9828 36.2412C80.7702 30.7776 79.3446 25.4297 76.8093 20.5852C74.274 15.7407 70.6926 11.5211 66.3246 8.2321C61.9566 4.94311 56.9116 2.66721 51.5552 1.56938C46.1987 0.471545 40.6651 0.579285 35.3555 1.88479C30.0459 3.19029 25.0933 5.66085 20.8566 9.11737C16.62 12.5739 13.2055 16.9298 10.8607 21.8692C8.51595 26.8087 7.29958 32.2081 7.29981 37.6758C7.29693 42.9547 8.43676 48.1716 10.641 52.9683C12.5465 52.0952 14.5846 51.5472 16.671 51.3471C14.5463 47.1054 13.4406 42.4265 13.4418 37.6824Z" fill="#593487"/>
<path d="M57.9517 44.7334C57.9482 41.7554 56.7636 38.9003 54.6578 36.7944C52.552 34.6886 49.6969 33.504 46.7188 33.5005H41.5883C40.8263 33.5005 40.0955 33.1978 39.5566 32.659C39.0178 32.1201 38.715 31.3893 38.715 30.6272C38.715 29.8652 39.0178 29.1343 39.5566 28.5955C40.0955 28.0566 40.8263 27.7539 41.5883 27.7539H57.9517V19.3712H48.8144V14.0991H40.4318V19.4536C37.5665 19.7492 34.9244 21.1342 33.0512 23.3224C31.178 25.5105 30.217 28.3347 30.3668 31.2112C30.5165 34.0877 31.7656 36.7968 33.8558 38.7787C35.9461 40.7605 38.7178 41.8637 41.5982 41.8601H46.7287C47.4907 41.8601 48.2215 42.1629 48.7604 42.7017C49.2992 43.2406 49.602 43.9714 49.602 44.7334C49.602 45.4955 49.2992 46.2263 48.7604 46.7652C48.2215 47.304 47.4907 47.6068 46.7287 47.6068H30.3653V53.9201C30.9485 54.1574 31.5384 54.4111 32.1414 54.6813C33.2815 55.2019 37.1136 55.8148 44.1651 55.8148C45.3876 55.8148 46.185 55.7917 46.1949 55.7917H46.3959C46.8275 55.7917 47.4107 55.8115 48.0928 55.8741C50.8112 55.5369 53.313 54.2189 55.1283 52.1675C56.9437 50.1162 57.9476 47.4727 57.9517 44.7334Z" fill="#593487"/>
<path d="M42.0565 71.1765H41.2063H41.1635L40.3859 71.1929H40.287L39.6082 71.2127H39.5292L38.9163 71.2391H38.8734C38.478 71.2555 38.1485 71.2753 37.8849 71.2918L37.5554 71.3149L37.2555 71.3379H37.2292H37.1073C37.0689 71.3412 37.0303 71.3412 36.9919 71.3379H36.8239C36.7606 71.3282 36.6979 71.315 36.6361 71.2984L36.4845 71.2522L36.3165 71.183L36.1715 71.1106C36.1203 71.0792 36.0708 71.0451 36.0232 71.0084L35.9935 70.9886C35.9581 70.9652 35.924 70.9399 35.8914 70.9129C35.8485 70.8733 35.8057 70.8305 35.7662 70.7876L35.7398 70.758C35.7096 70.7288 35.681 70.698 35.6541 70.6657C35.6179 70.6196 35.5849 70.5669 35.552 70.5174L35.5289 70.4812C35.5056 70.4475 35.4847 70.4123 35.4663 70.3758C35.4338 70.3105 35.4052 70.2434 35.3806 70.1748C35.3576 70.122 35.3444 70.0858 35.3312 70.0495C35.3018 69.9415 35.2809 69.8313 35.2686 69.72V69.6871C35.2291 69.2073 35.3796 68.7312 35.6878 68.3614C35.996 67.9916 36.4371 67.7577 36.9162 67.71H37.0282L37.2687 67.6903H37.3083L37.6378 67.6672H37.7202L38.1815 67.6408L38.7647 67.6112H38.8009L39.4369 67.5848H39.5357L40.2409 67.5651H40.3562L41.1536 67.5486H41.2294H42.1454H42.1784H43.1439H43.4009H44.1752H44.4289H44.5574L45.2659 67.5749L45.7008 67.5947L46.4093 67.631L46.8673 67.6573L47.6054 67.71H47.724L48.0535 67.7331L48.8806 67.8089H49.0256L49.2793 67.832C49.6813 67.8715 50.0866 67.9143 50.4952 67.9638H50.5281C50.7467 67.9911 50.9668 68.0043 51.1871 68.0033H51.286C51.3442 68.0067 51.4025 68.0067 51.4606 68.0033H51.5628C51.711 68.0033 51.856 67.9835 51.9944 67.9605L52.2185 67.9143H52.2613C52.3865 67.888 52.5118 67.8583 52.6304 67.8221L52.8775 67.71C52.9895 67.6672 53.095 67.6211 53.207 67.5716C53.319 67.5222 53.352 67.5024 53.4245 67.4629C53.497 67.4234 53.6156 67.3476 53.7046 67.2883L53.7375 67.2685C53.7902 67.2323 53.843 67.1993 53.8891 67.1631C53.9352 67.1268 54.0571 67.0247 54.1395 66.9555L54.1955 66.9027L54.2878 66.8204C54.3669 66.7413 54.4394 66.6556 54.5119 66.5732L54.5679 66.5073L54.614 66.4546C54.7072 66.3343 54.792 66.2077 54.8677 66.0757V66.0592C55.0953 65.6612 55.2325 65.2179 55.2697 64.7609C55.3159 63.9642 55.0673 63.1784 54.5712 62.5532L54.3438 62.2534C54.0681 62.0155 53.7776 61.7953 53.4739 61.5944C53.4179 61.5581 53.3586 61.5252 53.3026 61.4955L53.1444 61.4033L53.0423 61.3374C52.8511 61.222 52.6732 61.11 52.492 61.0079L52.2481 60.8958L52.0735 60.82L51.9186 60.7475C51.7671 60.675 51.6155 60.6059 51.4573 60.5432C51.3651 60.507 51.2695 60.4773 51.174 60.4444L50.9927 60.3851L50.8247 60.3258C50.683 60.2763 50.5413 60.2269 50.3963 60.1841C50.2513 60.1412 50.192 60.1314 50.0866 60.1083L49.9119 60.0655L49.7472 60.0226C49.6055 59.9864 49.4671 59.9501 49.332 59.9238C49.1969 59.8974 49.1145 59.8842 49.0025 59.8678L48.841 59.8414L48.6796 59.815C48.5445 59.792 48.4127 59.7656 48.2809 59.7491L47.9514 59.7162H47.7965L47.6416 59.6997L47.2726 59.6668H46.9628H46.8245H46.663H46.3137H45.7239H44.1324C43.6941 59.6668 43.2361 59.6668 42.7451 59.6668H42.5903H41.8752H41.8192L41.0185 59.647H40.8406L40.1025 59.6239H39.9806L39.1337 59.5877H39.0085H38.9426L38.2078 59.5448H38.1287H38.0431L37.1831 59.4855H37.0743H37.0051C36.7646 59.469 36.524 59.446 36.2868 59.4229H36.2407H36.0924C35.8123 59.3966 35.5322 59.3669 35.2587 59.334H35.1731H35.1105L34.4251 59.245L34.2274 59.2153C33.9638 59.1791 33.7067 59.1363 33.4563 59.0934H33.3904H33.3476L32.7116 58.9715L32.5337 58.932C32.2998 58.8792 32.0724 58.8265 31.8582 58.7705H31.8253C31.6111 58.7112 31.4233 58.6552 31.2453 58.5959L31.0971 58.5431C30.873 58.464 30.6983 58.3949 30.5468 58.3257C29.9734 58.0643 29.3979 57.8182 28.8202 57.5876L28.4906 57.4591L28.2699 57.3767C27.9008 57.2317 27.5318 57.0867 27.1726 56.9582L26.7607 56.8165L26.5597 56.7473C26.2302 56.6386 25.9238 56.5331 25.614 56.4376L25.1198 56.2893L25.0012 56.2564C24.7079 56.1707 24.4179 56.0883 24.1346 56.0158L23.5513 55.716C23.2778 55.6534 23.0076 55.594 22.744 55.5413L22.1773 55.4326C21.9203 55.3865 21.6665 55.3469 21.4161 55.3107C21.2349 55.2843 21.057 55.2579 20.879 55.2382C20.6352 55.2085 20.3946 55.1854 20.1574 55.1657H20.0553L19.6565 55.136C19.4193 55.136 19.1854 55.1163 18.9547 55.113H18.5132C18.0683 55.113 17.6268 55.1327 17.1951 55.169L17.0172 55.1887H16.8986C16.5691 55.225 16.2396 55.2711 15.91 55.3271L15.798 55.3436L15.6003 55.3799C15.1983 55.4589 14.8194 55.5479 14.4701 55.6435L14.3548 55.6797L14.2493 55.7127C13.9495 55.7983 13.6529 55.8972 13.363 56.0026L13.3102 56.0224L13.0598 56.1147C12.6875 56.2596 12.3612 56.398 12.0713 56.5364L12.0186 56.5661L11.9461 56.6023C11.6693 56.7341 11.3925 56.8758 11.0959 57.0406L10.806 57.202C10.5424 57.3536 10.2788 57.5085 10.025 57.6699L9.94925 57.7161L9.88335 57.7556C9.58679 57.9434 9.30012 58.1378 9.01675 58.3355L8.73007 58.5365L8.07106 59.011L7.9788 59.0802L7.85029 59.1758L7.0397 59.8019L6.60146 60.1314L6.5059 60.2071L6.22911 60.4246C5.85018 60.7212 5.47454 61.0177 5.0989 61.3077L5.02641 61.3637L4.97369 61.4033C4.72656 61.5944 4.47613 61.7822 4.22571 61.9667L4.17957 62.003L4.01153 62.1249C3.71826 62.3391 3.425 62.5499 3.12515 62.7509L3.05595 62.7971L3.01312 62.8267C2.74951 63.0014 2.48261 63.1562 2.21571 63.3375L1.96858 63.4857C1.60282 63.7032 1.30956 63.8713 1.01301 64.0196C0.833777 64.1112 0.681318 64.2477 0.570456 64.4157C0.459594 64.5837 0.394102 64.7776 0.380352 64.9784C0.373973 65.1132 0.390689 65.248 0.429778 65.3771L6.22911 84.3601C6.25626 84.4414 6.29159 84.5198 6.33455 84.594L6.36751 84.65C6.40708 84.7142 6.45348 84.7738 6.5059 84.828L6.52567 84.8477C6.57696 84.8974 6.63328 84.9416 6.69372 84.9795L6.74644 85.0125C6.80814 85.0463 6.87198 85.076 6.93755 85.1014H6.95732H6.97709C7.04715 85.1217 7.1188 85.1361 7.19127 85.1443H7.33955H7.46147H7.51749C7.58504 85.1305 7.65121 85.1107 7.71519 85.085L7.77121 85.0619C7.8498 85.0289 7.92487 84.9881 7.99527 84.94C16.7305 78.5344 17.8311 78.5344 18.21 78.5344C19.8872 78.5344 26.4741 79.6876 35.2884 82.1589C35.7332 82.2842 36.1879 82.3995 36.725 82.528L37.0842 82.6137C37.5752 82.7257 38.0035 82.8147 38.4022 82.8872H38.4352C38.8504 82.9662 39.2622 83.0321 39.7532 83.098L40.0827 83.1409C40.5045 83.1936 40.8801 83.2331 41.2294 83.2628H41.3217C41.6808 83.2925 42.0598 83.3122 42.4848 83.3221H42.7748H43.3679C43.7337 83.3221 44.0961 83.3023 44.4454 83.2793H44.5838L44.854 83.2628C45.3614 83.2167 45.803 83.1639 46.2083 83.098L46.3137 83.0783C46.6926 83.0124 47.0782 82.9333 47.4901 82.8311C47.5955 82.8081 47.7009 82.7784 47.8196 82.7488H47.8756C48.1754 82.6697 48.472 82.5807 48.7587 82.4852L48.8641 82.4522L49.0981 82.3731C49.5165 82.2281 49.8823 82.0865 50.2151 81.9415L50.2612 81.9184C50.5907 81.78 50.9202 81.6218 51.2794 81.4307L51.5199 81.3022L51.5891 81.266C51.8396 81.1276 52.0867 80.9859 52.3272 80.8409L52.4096 80.7915L52.6172 80.6663C52.9731 80.4422 53.2762 80.2379 53.5629 80.0402C57.7707 77.0746 77.2677 63.98 83.6667 59.7096C83.6338 59.6437 83.6008 59.5712 83.5613 59.4954C83.5217 59.4196 83.5052 59.3933 83.4789 59.3438C83.3899 59.1857 83.2943 59.0341 83.1955 58.8924L83.156 58.8364L83.1329 58.8002C83.0047 58.6291 82.8672 58.4651 82.721 58.3092L82.6518 58.2367L82.609 58.1939C82.4838 58.0686 82.352 57.9467 82.2202 57.8314L82.1674 57.7853L82.0949 57.726C81.917 57.581 81.7358 57.4459 81.5546 57.324L81.5018 57.2943L81.4392 57.2548C81.2811 57.1526 81.1097 57.0538 80.9384 56.9615L80.767 56.8725C80.5265 56.7506 80.3123 56.6518 80.108 56.5727C79.9037 56.4936 79.6632 56.4079 79.4062 56.3321L79.2118 56.2761C79.0009 56.2135 78.7867 56.1641 78.5791 56.1213L78.5099 56.1048H78.4638C78.2232 56.0586 77.9761 56.0191 77.7026 55.9894H77.5807H77.5082C77.2973 55.9894 77.0864 55.9598 76.8723 55.9532H76.6844H76.4933H76.3516C76.0847 55.9532 75.864 55.973 75.6531 55.9927C75.541 55.9927 75.4312 56.0059 75.3236 56.0323H75.2906C75.0731 56.0619 74.8524 56.0982 74.6316 56.141C74.5064 56.1641 74.3812 56.1905 74.2593 56.2201C74.055 56.2695 73.8375 56.3321 73.5739 56.4145L73.4487 56.4541L73.251 56.5167C72.9245 56.6301 72.6044 56.7609 72.2921 56.9088C71.7451 57.2383 62.6639 62.9256 58.9404 65.1728C58.8526 66.1431 58.5559 67.0828 58.0705 67.9275C56.7097 70.2934 54.1593 71.7037 51.2431 71.7037C50.8677 71.7032 50.4925 71.6812 50.1195 71.6378C49.7274 71.5883 49.3353 71.5455 48.9465 71.5093L48.7092 71.4862H48.5708L47.7899 71.417L47.4373 71.3906H47.3583L46.6564 71.3445L46.2215 71.3181L45.5394 71.2819H45.4735H45.144L44.4487 71.2588H44.3103H44.0665H43.2559H43.0779C42.7781 71.2588 42.4815 71.2588 42.1949 71.2588H42.0664L42.0565 71.1765Z" fill="#593487"/>
</svg>
