<svg width="31" height="15" viewBox="0 0 31 15" fill="none" xmlns="http://www.w3.org/2000/svg">
<path d="M15.5452 0.764496C7.69003 0.764496 1.2798 6.98808 0.921875 14.7983H30.1686C29.8106 6.98808 23.4004 0.764496 15.5452 0.764496ZM9.67114 14.5535C9.05936 14.5535 8.46133 14.3771 7.95266 14.0467C7.44399 13.7162 7.04753 13.2465 6.81342 12.697C6.5793 12.1475 6.51805 11.5429 6.6374 10.9595C6.75675 10.3762 7.05134 9.84033 7.48393 9.41976C7.91652 8.99919 8.46767 8.71278 9.06769 8.59674C9.6677 8.48071 10.2896 8.54026 10.8548 8.76787C11.42 8.99549 11.9031 9.38093 12.243 9.87547C12.5829 10.37 12.7643 10.9514 12.7643 11.5462C12.7643 12.3438 12.4384 13.1087 11.8583 13.6727C11.2783 14.2366 10.4915 14.5535 9.67114 14.5535ZM21.4178 14.5535C20.8061 14.5535 20.208 14.3771 19.6994 14.0467C19.1907 13.7162 18.7942 13.2465 18.5601 12.697C18.326 12.1475 18.2647 11.5429 18.3841 10.9595C18.5034 10.3762 18.798 9.84033 19.2306 9.41976C19.6632 8.99919 20.2144 8.71278 20.8144 8.59674C21.4144 8.48071 22.0363 8.54026 22.6015 8.76787C23.1667 8.99549 23.6498 9.38093 23.9897 9.87547C24.3296 10.37 24.511 10.9514 24.511 11.5462C24.511 12.3438 24.1851 13.1087 23.605 13.6727C23.025 14.2366 22.2382 14.5535 21.4178 14.5535Z" fill="white"/>
</svg>