<svg width="20" height="18" viewBox="0 0 20 18" fill="none" xmlns="http://www.w3.org/2000/svg">
<path d="M19.056 15.9842L10.7147 1.17196C10.3969 0.609348 9.60726 0.609348 9.28939 1.17196L0.94479 15.9842C0.626961 16.5468 1.0251 17.25 1.65747 17.25H18.34C18.9757 17.25 19.3705 16.5468 19.056 15.9842H19.056ZM10.0155 15.5623C9.28943 15.5623 8.69049 14.9345 8.69049 14.2039C8.69049 13.4595 9.28939 12.8317 10.0155 12.8317C10.7382 12.8317 11.3371 13.4595 11.3371 14.2039C11.3371 14.9345 10.7382 15.5623 10.0155 15.5623ZM11.0259 11.9433H9.00168L8.66373 6.57817H11.3371L11.0259 11.9433Z" fill="#C9112C"/>
</svg>
